<svg xmlns="http://www.w3.org/2000/svg" viewBox="0 0 41.8 45.97"><defs><style>.cls-1{fill:#fdb526;}</style></defs><title>Asset 2</title><g id="Layer_2" data-name="Layer 2"><g id="Object"><path class="cls-1" d="M30,33.76c0,5.66-9,3.11-12.21,2.36-.73-.17-1.47-.39-2.23-.61-2.06-1.13-4.17-2.85-3.91-5s2.91-2.61,4.48-1.88a2.52,2.52,0,0,1,1.11,3.22c-.32,1-1.08,1.21-2,1.36a.24.24,0,0,0-.14.41c1.66,1.34,3.17-1.29,3.13-2.74-.07-2.56-2.45-3.78-4.77-3.22a3.33,3.33,0,0,0-2.16,4.82A7.64,7.64,0,0,0,13.73,35c-3.3-1-6.68-1.86-9.88-.28C1.6,35.78-.23,37.81,0,40.46c.28,2.9,3.15,4.82,5.75,5.4s6-.93,5.72-3.88c-.23-2.54-3.1-2.83-4.72-1.51a1.24,1.24,0,0,0-.22.18l0,0-.15.17a1,1,0,0,0,1.48,1.3L8,42c1-1,2,.11,1.18,1.13-1,1.18-2.68,1-4,.58C2.89,42.9,1,40.51,2.32,38.12,3.47,36,6.54,35.06,8.8,35.22a25.6,25.6,0,0,1,4.48,1.06c1.1.29,4,1.12,7.19,1.66a4.25,4.25,0,0,0-2.56,1.51,3,3,0,0,0,.68,4.23,3.47,3.47,0,0,0,3.52,0,1.54,1.54,0,0,0,.33-2.6.42.42,0,0,0-.62.54c1,1.59-2,1.86-2.88,1.2-1.24-.9-.67-2.79.37-3.57a7.33,7.33,0,0,1,3.23-1c4.9.58,9.51,0,8-4.58A.28.28,0,0,0,30,33.76Z"/><path class="cls-1" d="M38.11,7.53a1,1,0,0,0-1.48-1.29l-.16.17,0,0a1.14,1.14,0,0,0-.15.23c-1.09,1.78-.42,4.6,2.13,4.48,3-.14,3.95-3.81,3.08-6.18S38.29-.11,35.38,0C32.72.11,31,2.19,30.15,4.57c-1.14,3.38.16,6.62,1.6,9.75A7.79,7.79,0,0,0,29,12.24,3.34,3.34,0,0,0,24.5,15c-.25,2.38,1.28,4.57,3.82,4.3,1.44-.16,3.85-2,2.3-3.47a.24.24,0,0,0-.39.19,2.11,2.11,0,0,1-1.08,2.15,2.53,2.53,0,0,1-3.34-.67c-.93-1.46-.77-4.17,1.26-4.69s4.08,1.31,5.48,3.21c.33.71.64,1.42.91,2.12,1.18,3.1,4.91,11.69-.71,12.42a.28.28,0,0,0,0,.56c4.79.89,4.69-3.76,3.47-8.54a7.43,7.43,0,0,1,.55-3.33c.63-1.13,2.43-2,3.49-.84.78.8.91,3.8-.8,3a.41.41,0,0,0-.45.68,1.54,1.54,0,0,0,2.53-.67A3.48,3.48,0,0,0,41.06,18a3,3,0,0,0-4.28-.1,4.22,4.22,0,0,0-1.16,2.74c-1-3.07-2.17-5.86-2.61-6.91a25.44,25.44,0,0,1-1.65-4.3c-.46-2.22,0-5.38,2-6.81,2.21-1.59,4.82-.08,5.91,2.12.61,1.22,1,2.9,0,4-.9.95-2.11.07-1.28-1Z"/></g></g></svg>