<svg xmlns="http://www.w3.org/2000/svg" viewBox="0 0 41.8 45.97"><defs><style>.cls-1{fill:#fdb526;}</style></defs><title>Asset 3</title><g id="Layer_2" data-name="Layer 2"><g id="Object"><path class="cls-1" d="M3.85,11.3c3.2,1.58,6.58.73,9.88-.28a7.55,7.55,0,0,0-2.43,2.47,3.33,3.33,0,0,0,2.16,4.81c2.32.57,4.7-.65,4.77-3.21,0-1.45-1.47-4.08-3.13-2.74a.24.24,0,0,0,.14.41c.9.15,1.66.4,2,1.36a2.53,2.53,0,0,1-1.11,3.22c-1.57.73-4.24.2-4.48-1.88s1.85-3.87,3.92-5c.75-.23,1.49-.44,2.22-.61C21,9.09,30,6.55,30,12.21a.28.28,0,0,0,.55.11c1.53-4.63-3.09-5.16-8-4.59a7.2,7.2,0,0,1-3.23-1c-1-.78-1.61-2.67-.37-3.57.9-.66,3.9-.39,2.88,1.2a.42.42,0,0,0,.62.54,1.54,1.54,0,0,0-.33-2.6,3.49,3.49,0,0,0-3.52,0,3.05,3.05,0,0,0-.68,4.23A4.21,4.21,0,0,0,20.48,8c-3.17.54-6.1,1.36-7.2,1.65A24.76,24.76,0,0,1,8.8,10.75c-2.26.16-5.33-.74-6.48-2.9C1,5.45,2.89,3.07,5.21,2.28c1.29-.44,3-.6,4,.58C10,3.88,9,5,8,4l-.15-.18A1,1,0,0,0,6.37,5.1l.16.18,0,0a.91.91,0,0,0,.21.18c1.62,1.32,4.49,1,4.72-1.51C11.75,1,8.24-.43,5.77.11S.31,2.61,0,5.51C-.23,8.16,1.6,10.19,3.85,11.3Z"/><path class="cls-1" d="M29.15,27.77a2.11,2.11,0,0,1,1.08,2.15.24.24,0,0,0,.39.19c1.55-1.46-.86-3.31-2.3-3.47-2.54-.27-4.07,1.92-3.82,4.3A3.34,3.34,0,0,0,29,33.73a7.82,7.82,0,0,0,2.77-2.09C30.31,34.78,29,38,30.15,41.4c.8,2.38,2.57,4.46,5.23,4.56,2.91.12,5.2-2.47,6.12-5s-.12-6-3.08-6.18c-2.55-.12-3.22,2.69-2.13,4.47a1.58,1.58,0,0,0,.15.24l0,0,.16.18a1,1,0,0,0,1.48-1.29L38,38.26c-.83-1.09.38-2,1.28-1,1,1.11.65,2.8,0,4-1.09,2.2-3.7,3.72-5.91,2.13-2-1.44-2.46-4.59-2-6.82A24.86,24.86,0,0,1,33,32.27c.43-1.05,1.64-3.85,2.6-6.91a4.24,4.24,0,0,0,1.16,2.74,3,3,0,0,0,4.28-.1,3.48,3.48,0,0,0,.45-3.49A1.54,1.54,0,0,0,39,23.84a.41.41,0,0,0,.45.67c1.71-.79,1.58,2.22.8,3-1.06,1.11-2.85.29-3.49-.84a7.45,7.45,0,0,1-.55-3.34c1.22-4.77,1.32-9.42-3.47-8.53a.28.28,0,0,0,0,.56c5.62.72,1.89,9.32.71,12.41-.27.71-.58,1.42-.91,2.13-1.4,1.9-3.38,3.75-5.48,3.21s-2.19-3.23-1.26-4.69A2.53,2.53,0,0,1,29.15,27.77Z"/></g></g></svg>