<svg xmlns="http://www.w3.org/2000/svg" viewBox="0 0 41.8 45.97"><defs><style>.cls-1{fill:#fdb526;}</style></defs><title>Asset 4</title><g id="Layer_2" data-name="Layer 2"><g id="Object"><path class="cls-1" d="M36,.11C33.56-.43,30.05,1,30.31,4c.23,2.54,3.1,2.83,4.72,1.51a1.24,1.24,0,0,0,.22-.18l0,0,.16-.18A1,1,0,0,0,34,3.81L33.8,4c-1,1-2-.11-1.18-1.13,1-1.18,2.68-1,4-.58,2.32.79,4.18,3.17,2.89,5.57C38.33,10,35.26,10.91,33,10.75a24.76,24.76,0,0,1-4.48-1.07c-1.09-.29-4-1.11-7.19-1.65a4.22,4.22,0,0,0,2.56-1.52,3,3,0,0,0-.68-4.23,3.49,3.49,0,0,0-3.52,0,1.55,1.55,0,0,0-.33,2.6A.42.42,0,0,0,20,4.37c-1-1.59,2-1.86,2.88-1.2,1.24.9.67,2.79-.37,3.57a7.2,7.2,0,0,1-3.23,1c-4.9-.57-9.51,0-8,4.59a.28.28,0,0,0,.55-.11c0-5.66,9-3.12,12.21-2.36.73.17,1.47.38,2.23.61,2.06,1.13,4.17,2.85,3.91,5s-2.9,2.61-4.48,1.88a2.53,2.53,0,0,1-1.11-3.22c.32-1,1.08-1.21,2-1.36a.24.24,0,0,0,.14-.41C25,11,23.53,13.64,23.57,15.09c.07,2.56,2.45,3.78,4.77,3.21a3.33,3.33,0,0,0,2.17-4.81A7.68,7.68,0,0,0,28.07,11c3.3,1,6.69,1.86,9.88.28C40.2,10.19,42,8.16,41.78,5.51,41.5,2.61,38.63.69,36,.11Z"/><path class="cls-1" d="M3.69,38.44a1,1,0,0,0,1.48,1.29l.16-.18,0,0a1.58,1.58,0,0,0,.15-.24c1.09-1.78.42-4.59-2.13-4.47C.42,35-.57,38.62.3,41s3.21,5.09,6.13,5c2.66-.1,4.42-2.18,5.22-4.56,1.14-3.38-.16-6.62-1.6-9.76a7.82,7.82,0,0,0,2.77,2.09,3.34,3.34,0,0,0,4.48-2.79c.25-2.38-1.28-4.57-3.82-4.3-1.44.16-3.85,2-2.3,3.47a.24.24,0,0,0,.39-.19,2.12,2.12,0,0,1,1.08-2.15,2.53,2.53,0,0,1,3.34.67c.94,1.46.77,4.17-1.26,4.69s-4.08-1.31-5.48-3.21c-.33-.71-.64-1.42-.91-2.13C7.16,24.7,3.43,16.1,9.05,15.38a.28.28,0,0,0,0-.56c-4.79-.89-4.69,3.76-3.47,8.53a7.45,7.45,0,0,1-.55,3.34c-.63,1.13-2.43,1.95-3.49.84-.78-.8-.91-3.81.8-3a.41.41,0,0,0,.45-.67,1.54,1.54,0,0,0-2.53.67A3.48,3.48,0,0,0,.74,28,3,3,0,0,0,5,28.1a4.24,4.24,0,0,0,1.16-2.74c1,3.06,2.17,5.86,2.61,6.91a25.66,25.66,0,0,1,1.65,4.29c.46,2.23,0,5.38-2,6.82-2.21,1.59-4.82.07-5.91-2.13-.61-1.21-1-2.9,0-4,.9-1,2.11-.07,1.28,1Z"/></g></g></svg>