<?xml version="1.0" encoding="UTF-8"?>
<svg width="320" height="320" xmlns="http://www.w3.org/2000/svg" xmlns:svg="http://www.w3.org/2000/svg" xmlns:xlink="http://www.w3.org/1999/xlink">
 <title>Pause</title>
 <defs>
  <filter color-interpolation-filters="sRGB" id="filter5863" x="-0.12" width="1.24" y="-0.12" height="1.24">
   <feGaussianBlur stdDeviation="17.149999" id="feGaussianBlur5865"/>
  </filter>
  <linearGradient xlink:href="#linearGradient5560" id="linearGradient6736" x1="0.316941" y1="0.110886" x2="0.65287" y2="0.658316"/>
  <linearGradient id="linearGradient5560">
   <stop offset="0" id="stop5562" stop-color="#ffffff"/>
   <stop offset="1" id="stop5564" stop-opacity="0" stop-color="#ffffff"/>
  </linearGradient>
 </defs>
 <metadata id="metadata6796">image/svg+xml</metadata>
 <g>
  <title>Layer 1</title>
  <path d="m261.2258,158c0,57.01001 -46.215759,103.2258 -103.2258,103.2258c-57.01004,0 -103.225811,-46.21579 -103.225811,-103.2258c0,-57.010017 46.215771,-103.22583 103.225811,-103.22583c57.01004,0 103.2258,46.215813 103.2258,103.22583c0,0 0,0 0,0" id="path6704" filter="url(#filter5863)" stroke-width="4" fill-rule="nonzero" fill="#000000"/>
  <path d="m224.054031,157.903656c0,36.427399 -29.530243,65.957657 -65.957642,65.957657c-36.427406,0 -65.957657,-29.530258 -65.957657,-65.957657c0,-36.427383 29.530251,-65.957649 65.957657,-65.957649c36.427399,0 65.957642,29.530266 65.957642,65.957649c0,0 0,0 0,0" id="path6706" stroke-dashoffset="0" stroke-miterlimit="4" stroke-linejoin="round" stroke-linecap="round" stroke-width="3.320313" stroke="#ff9955" fill-rule="nonzero" fill="#ffeeaa"/>
  <path transform="translate(0, 10) translate(0, 10) translate(0, 10)" id="path6708" d="m261.399994,127.903999c0,57.053001 -46.250992,103.303001 -103.304001,103.303001c-57.052589,0 -103.303093,-46.25 -103.303093,-103.303001c0,-57.053299 46.250504,-103.3039 103.303093,-103.3039c57.053009,0 103.304001,46.250601 103.304001,103.3039c0,0 0,0 0,0" stroke-dashoffset="0" stroke-miterlimit="4" stroke-linejoin="round" stroke-linecap="round" stroke-width="0" stroke="#191919" fill-rule="nonzero" fill="#002526"/>
  <path transform="translate(10) translate(10) translate(10) translate(0, 10) translate(0, 10) translate(0, 10)" d="m86.835213,39.658951c46.036018,-23.897791 76.972145,3.844639 87.943535,28.310593c-105.455025,9.653198 -99.512016,57.754929 -113.242367,126.494125c-43.750221,-41.934158 -42.001251,-119.868538 25.298809,-154.804718l0.000023,0z" id="path6720" stroke-width="4" fill="url(#linearGradient6736)" opacity="0.7"/>
  <path id="svg_2" d="m111.423851,133.24501l22.790092,-22.789902l24.210266,24.210037l24.209442,-24.210037l22.790192,22.789902l-24.209625,24.210098l24.209625,24.209961l-22.790192,22.790283l-24.209442,-24.209244l-24.210266,24.209244l-22.790092,-22.790283l24.209251,-24.209961l-24.209251,-24.210098z" stroke-width="5" stroke="#002526" fill="#FF0000"/>
 </g>
</svg>