<svg xmlns="http://www.w3.org/2000/svg" viewBox="0 0 41.8 45.97"><defs><style>.cls-1{fill:#fdb526;}</style></defs><title>Asset 1</title><g id="Layer_2" data-name="Layer 2"><g id="Object"><path class="cls-1" d="M38,34.67c-3.19-1.58-6.58-.73-9.88.28a7.78,7.78,0,0,0,2.44-2.47,3.34,3.34,0,0,0-2.17-4.82c-2.32-.56-4.7.66-4.77,3.22,0,1.45,1.47,4.08,3.13,2.74a.24.24,0,0,0-.14-.41c-.9-.15-1.66-.4-2-1.36a2.52,2.52,0,0,1,1.11-3.22c1.58-.73,4.24-.21,4.48,1.88s-1.85,3.87-3.91,5c-.76.22-1.5.44-2.23.61-3.23.75-12.25,3.3-12.21-2.36a.28.28,0,0,0-.55-.11c-1.52,4.62,3.09,5.16,8,4.58a7.33,7.33,0,0,1,3.23,1c1,.78,1.61,2.67.37,3.57-.9.66-3.9.39-2.88-1.2a.42.42,0,0,0-.62-.54,1.54,1.54,0,0,0,.33,2.6,3.47,3.47,0,0,0,3.52,0,3.06,3.06,0,0,0,.68-4.23,4.25,4.25,0,0,0-2.56-1.51c3.16-.54,6.09-1.37,7.19-1.66A25.6,25.6,0,0,1,33,35.22c2.26-.16,5.33.74,6.48,2.9,1.29,2.39-.57,4.78-2.89,5.57-1.29.43-3,.6-4-.58-.83-1,.21-2.1,1.18-1.13l.15.18a1,1,0,0,0,1.48-1.3,1.29,1.29,0,0,0-.16-.17l0,0a1.24,1.24,0,0,0-.22-.18c-1.62-1.32-4.49-1-4.72,1.51-.26,3,3.25,4.42,5.72,3.88s5.47-2.5,5.75-5.4C42,37.81,40.2,35.78,38,34.67Z"/><path class="cls-1" d="M12.65,18.2a2.13,2.13,0,0,1-1.08-2.15.24.24,0,0,0-.39-.19c-1.55,1.46.86,3.31,2.3,3.47,2.54.27,4.07-1.92,3.82-4.3a3.34,3.34,0,0,0-4.48-2.79,7.79,7.79,0,0,0-2.77,2.08c1.44-3.13,2.74-6.37,1.6-9.75C10.85,2.19,9.08.11,6.42,0,3.51-.11,1.22,2.48.3,5s.12,6,3.08,6.18c2.55.12,3.22-2.7,2.13-4.48a1.14,1.14,0,0,0-.15-.23l0,0-.16-.17A1,1,0,0,0,3.69,7.53l.16.18c.83,1.09-.38,2-1.28,1-1-1.12-.65-2.8,0-4C3.62,2.51,6.23,1,8.44,2.59c2,1.43,2.46,4.59,2,6.81a24.65,24.65,0,0,1-1.66,4.3c-.43,1.05-1.64,3.84-2.6,6.91A4.22,4.22,0,0,0,5,17.87,3,3,0,0,0,.74,18a3.48,3.48,0,0,0-.45,3.49,1.54,1.54,0,0,0,2.53.67.41.41,0,0,0-.45-.68c-1.71.79-1.58-2.21-.8-3,1.06-1.11,2.86-.29,3.49.84a7.43,7.43,0,0,1,.55,3.33C4.39,27.39,4.29,32,9.08,31.15a.28.28,0,0,0,0-.56c-5.62-.73-1.89-9.32-.71-12.42.27-.7.58-1.41.91-2.12,1.4-1.9,3.38-3.75,5.48-3.21s2.19,3.23,1.26,4.69A2.53,2.53,0,0,1,12.65,18.2Z"/></g></g></svg>